<svg width="26" height="32" viewBox="0 0 26 32" fill="none" xmlns="http://www.w3.org/2000/svg">
<path d="M6.3335 14.3333V7.66667C6.3335 5.89856 7.03587 4.20286 8.28612 2.95262C9.53636 1.70238 11.2321 1 13.0002 1C14.7683 1 16.464 1.70238 17.7142 2.95262C18.9645 4.20286 19.6668 5.89856 19.6668 7.66667V14.3333M1.3335 17.6667C1.3335 16.7826 1.68469 15.9348 2.30981 15.3096C2.93493 14.6845 3.78277 14.3333 4.66683 14.3333H21.3335C22.2176 14.3333 23.0654 14.6845 23.6905 15.3096C24.3156 15.9348 24.6668 16.7826 24.6668 17.6667V27.6667C24.6668 28.5507 24.3156 29.3986 23.6905 30.0237C23.0654 30.6488 22.2176 31 21.3335 31H4.66683C3.78277 31 2.93493 30.6488 2.30981 30.0237C1.68469 29.3986 1.3335 28.5507 1.3335 27.6667V17.6667ZM11.3335 22.6667C11.3335 23.1087 11.5091 23.5326 11.8217 23.8452C12.1342 24.1577 12.5581 24.3333 13.0002 24.3333C13.4422 24.3333 13.8661 24.1577 14.1787 23.8452C14.4912 23.5326 14.6668 23.1087 14.6668 22.6667C14.6668 22.2246 14.4912 21.8007 14.1787 21.4882C13.8661 21.1756 13.4422 21 13.0002 21C12.5581 21 12.1342 21.1756 11.8217 21.4882C11.5091 21.8007 11.3335 22.2246 11.3335 22.6667Z" stroke="#2761FC" stroke-width="2" stroke-linecap="round" stroke-linejoin="round"/>
</svg>
