<svg width="134" height="32" viewBox="0 0 134 32" fill="none" xmlns="http://www.w3.org/2000/svg">
<rect width="32" height="32" rx="12" fill="#2761FC"/>
<path fill-rule="evenodd" clip-rule="evenodd" d="M13.6264 8.10547L17.4688 8.10547C17.6148 8.10547 17.7549 8.1635 17.8582 8.26679L22.2645 12.673C22.3678 12.7763 22.4258 12.9164 22.4258 13.0625V19.8423C22.4258 20.4393 22.4258 20.9207 22.3939 21.3106C22.3611 21.7121 22.2919 22.0647 22.1256 22.3909C21.8616 22.9091 21.4403 23.3304 20.9221 23.5944C20.5959 23.7606 20.2433 23.8299 19.8419 23.8627C19.452 23.8946 18.9705 23.8946 18.3736 23.8945H13.6264C13.0295 23.8946 12.548 23.8946 12.1581 23.8627C11.7567 23.8299 11.4041 23.7606 11.0779 23.5944C10.5597 23.3304 10.1384 22.9091 9.87438 22.3909C9.70816 22.0647 9.63886 21.7121 9.60606 21.3106C9.57421 20.9207 9.57421 20.4393 9.57422 19.8423V12.1577C9.57421 11.5607 9.57421 11.0793 9.60606 10.6894C9.63886 10.288 9.70816 9.93535 9.87438 9.60913C10.1384 9.09095 10.5597 8.66965 11.0779 8.40563C11.4041 8.23941 11.7567 8.17011 12.1581 8.13731C12.548 8.10546 13.0295 8.10546 13.6264 8.10547ZM12.2478 9.23522C11.9145 9.26245 11.723 9.31322 11.578 9.38713C11.2671 9.54554 11.0143 9.79832 10.8559 10.1092C10.782 10.2543 10.7312 10.4458 10.704 10.7791C10.6762 11.1188 10.6758 11.5552 10.6758 12.1813V19.8188C10.6758 20.4448 10.6762 20.8812 10.704 21.2209C10.7312 21.5542 10.782 21.7457 10.8559 21.8908C11.0143 22.2017 11.2671 22.4545 11.578 22.6129C11.723 22.6868 11.9145 22.7376 12.2478 22.7648C12.5876 22.7926 13.024 22.793 13.65 22.793H18.35C18.976 22.793 19.4124 22.7926 19.7522 22.7648C20.0855 22.7376 20.277 22.6868 20.422 22.6129C20.7329 22.4545 20.9857 22.2017 21.1441 21.8908C21.218 21.7457 21.2688 21.5542 21.296 21.2209C21.3238 20.8812 21.3242 20.4448 21.3242 19.8188V13.6133L18.6245 13.6133C18.4354 13.6134 18.2617 13.6134 18.1166 13.6015C17.9601 13.5887 17.7888 13.5594 17.6197 13.4733C17.3779 13.3501 17.1813 13.1534 17.058 12.9116C16.9719 12.7425 16.9426 12.5713 16.9298 12.4147C16.9179 12.2696 16.918 12.0959 16.918 11.9068L16.918 9.20703H13.65C13.024 9.20703 12.5876 9.20746 12.2478 9.23522ZM18.0195 9.98596L20.5454 12.5118H18.6438C18.429 12.5118 18.3011 12.5113 18.2063 12.5036C18.1484 12.4989 18.1241 12.4926 18.1175 12.4906C18.0848 12.4733 18.058 12.4465 18.0407 12.4138C18.0387 12.4072 18.0324 12.3829 18.0277 12.325C18.02 12.2302 18.0195 12.1023 18.0195 11.8876V9.98596ZM18.0414 12.4157C18.0414 12.4157 18.0412 12.4153 18.041 12.4146C18.0412 12.4152 18.0414 12.4156 18.0414 12.4157ZM18.1157 12.4899C18.1157 12.4899 18.1161 12.4901 18.1168 12.4904C18.116 12.4901 18.1156 12.4899 18.1157 12.4899ZM12.5117 13.7969C12.5117 13.4927 12.7583 13.2461 13.0625 13.2461H14.5313C14.8354 13.2461 15.082 13.4927 15.082 13.7969C15.082 14.1011 14.8354 14.3477 14.5313 14.3477H13.0625C12.7583 14.3477 12.5117 14.1011 12.5117 13.7969ZM12.5117 16.7344C12.5117 16.4302 12.7583 16.1836 13.0625 16.1836H18.9375C19.2417 16.1836 19.4883 16.4302 19.4883 16.7344C19.4883 17.0386 19.2417 17.2852 18.9375 17.2852H13.0625C12.7583 17.2852 12.5117 17.0386 12.5117 16.7344ZM12.5117 19.6719C12.5117 19.3677 12.7583 19.1211 13.0625 19.1211H18.9375C19.2417 19.1211 19.4883 19.3677 19.4883 19.6719C19.4883 19.9761 19.2417 20.2227 18.9375 20.2227H13.0625C12.7583 20.2227 12.5117 19.9761 12.5117 19.6719Z" fill="white"/>
<path d="M42.4648 17.4033H44.2695C44.2786 17.859 44.4587 18.235 44.8096 18.5312C45.165 18.8275 45.6436 18.9756 46.2451 18.9756C46.7738 18.9756 47.1908 18.8708 47.4961 18.6611C47.806 18.4469 47.9609 18.1553 47.9609 17.7861C47.9609 17.5492 47.9017 17.3464 47.7832 17.1777C47.6647 17.0091 47.5052 16.877 47.3047 16.7812C47.1042 16.6855 46.874 16.6035 46.6143 16.5352C46.3545 16.4622 46.0788 16.3939 45.7871 16.3301C45.5 16.2617 45.2129 16.1888 44.9258 16.1113C44.6387 16.0293 44.3652 15.9176 44.1055 15.7764C43.8457 15.6351 43.6156 15.4642 43.415 15.2637C43.2145 15.0632 43.055 14.8011 42.9365 14.4775C42.818 14.1494 42.7588 13.7712 42.7588 13.3428C42.7588 12.5361 43.0618 11.8639 43.668 11.3262C44.2741 10.7884 45.099 10.5195 46.1426 10.5195C46.6165 10.5195 47.0586 10.5833 47.4688 10.7109C47.8789 10.834 48.2435 11.0186 48.5625 11.2646C48.8861 11.5062 49.1436 11.8229 49.335 12.2148C49.5264 12.6022 49.6289 13.0443 49.6426 13.541H47.7832C47.7741 13.1263 47.626 12.7959 47.3389 12.5498C47.0563 12.3037 46.6576 12.1807 46.1426 12.1807C45.6458 12.1807 45.2653 12.2878 45.001 12.502C44.7367 12.7161 44.6045 12.9873 44.6045 13.3154C44.6045 13.5342 44.6637 13.721 44.7822 13.876C44.9053 14.0264 45.0671 14.1449 45.2676 14.2314C45.4727 14.318 45.7074 14.3955 45.9717 14.4639C46.236 14.5277 46.514 14.5938 46.8057 14.6621C47.0973 14.7259 47.389 14.7988 47.6807 14.8809C47.9723 14.9583 48.2503 15.07 48.5146 15.2158C48.779 15.3571 49.0114 15.528 49.2119 15.7285C49.417 15.929 49.5788 16.1934 49.6973 16.5215C49.8203 16.8451 49.8818 17.2188 49.8818 17.6426C49.8818 18.5358 49.5514 19.2673 48.8906 19.8369C48.2344 20.402 47.332 20.6846 46.1836 20.6846C45.0671 20.6846 44.167 20.3838 43.4834 19.7822C42.8044 19.1761 42.4648 18.3831 42.4648 17.4033ZM50.9551 14.5938V13.1514H51.7822C51.9417 13.1514 52.0693 13.1012 52.165 13.001C52.2607 12.9007 52.3086 12.764 52.3086 12.5908V11.1074H54.0176V13.1377H56.0479V14.5938H54.0176V17.9775C54.0176 18.2965 54.1019 18.5449 54.2705 18.7227C54.4391 18.9004 54.6921 18.9893 55.0293 18.9893H56.0068V20.5H54.6465C53.8763 20.5 53.2747 20.2881 52.8418 19.8643C52.4134 19.4404 52.1992 18.8366 52.1992 18.0527V14.5938H50.9551ZM57.1348 16.8633C57.1348 16.1022 57.2943 15.4232 57.6133 14.8262C57.9323 14.2292 58.3721 13.7689 58.9326 13.4453C59.4977 13.1172 60.1357 12.9531 60.8467 12.9531C61.4209 12.9531 61.9404 13.0557 62.4053 13.2607C62.8747 13.4613 63.2598 13.737 63.5605 14.0879C63.8613 14.4388 64.0915 14.8444 64.251 15.3047C64.415 15.7604 64.4971 16.2503 64.4971 16.7744V17.3486H58.8984C58.9258 17.9137 59.1195 18.3695 59.4795 18.7158C59.8441 19.0576 60.318 19.2285 60.9014 19.2285C61.3389 19.2285 61.7217 19.1351 62.0498 18.9482C62.3779 18.7568 62.6058 18.5085 62.7334 18.2031H64.4287C64.2464 18.9642 63.8385 19.568 63.2051 20.0146C62.5716 20.4613 61.7855 20.6846 60.8467 20.6846C59.7666 20.6846 58.8779 20.3245 58.1807 19.6045C57.4834 18.8799 57.1348 17.9661 57.1348 16.8633ZM58.9258 16.0635H62.7607C62.7197 15.5667 62.5238 15.168 62.1729 14.8672C61.8219 14.5618 61.3799 14.4092 60.8467 14.4092C60.3408 14.4092 59.9079 14.5687 59.5479 14.8877C59.1878 15.2021 58.9805 15.5941 58.9258 16.0635ZM65.8848 18.4287V10H67.7031V18.2578C67.7031 18.4674 67.7533 18.6292 67.8535 18.7432C67.9583 18.8525 68.1042 18.9072 68.291 18.9072H68.585V20.5H67.8945C67.2565 20.5 66.762 20.3177 66.4111 19.9531C66.0602 19.5885 65.8848 19.0804 65.8848 18.4287ZM70.0273 18.4287V10H71.8457V18.2578C71.8457 18.4674 71.8958 18.6292 71.9961 18.7432C72.1009 18.8525 72.2467 18.9072 72.4336 18.9072H72.7275V20.5H72.0371C71.3991 20.5 70.9046 20.3177 70.5537 19.9531C70.2028 19.5885 70.0273 19.0804 70.0273 18.4287ZM73.7324 16.8633C73.7324 15.7103 74.0492 14.7715 74.6826 14.0469C75.3206 13.3177 76.1432 12.9531 77.1504 12.9531C77.4466 12.9531 77.7269 12.9941 77.9912 13.0762C78.2555 13.1536 78.4766 13.2562 78.6543 13.3838C78.8366 13.5114 78.9847 13.6322 79.0986 13.7461C79.2126 13.86 79.3083 13.974 79.3857 14.0879H79.4883V13.1377H81.3066V20.5H79.5156V19.5635H79.4131C79.3402 19.6729 79.2536 19.7777 79.1533 19.8779C79.0576 19.9782 78.9209 20.0967 78.7432 20.2334C78.5654 20.3701 78.3421 20.4795 78.0732 20.5615C77.8089 20.6436 77.5195 20.6846 77.2051 20.6846C76.1751 20.6846 75.3389 20.3337 74.6963 19.6318C74.0537 18.9255 73.7324 18.0026 73.7324 16.8633ZM75.5781 16.8291C75.5781 17.4945 75.7604 18.0299 76.125 18.4355C76.4896 18.8411 76.9658 19.0439 77.5537 19.0439C78.1462 19.0439 78.6224 18.8343 78.9824 18.415C79.347 17.9912 79.5293 17.4626 79.5293 16.8291C79.5293 16.1455 79.3447 15.6055 78.9756 15.209C78.6064 14.8079 78.1279 14.6074 77.54 14.6074C76.9613 14.6074 76.4896 14.8148 76.125 15.2295C75.7604 15.6442 75.5781 16.1774 75.5781 16.8291ZM83.166 20.5V13.1377H84.8818V14.3408H84.998C85.1348 14.0127 85.3717 13.7256 85.709 13.4795C86.0462 13.2334 86.4518 13.1104 86.9258 13.1104H87.6025V14.8467H86.8438C86.265 14.8467 85.8092 15.0426 85.4766 15.4346C85.1484 15.8219 84.9844 16.3483 84.9844 17.0137V20.5H83.166ZM92.9414 20.5V10.6973H94.9717L99.1689 17.4033H99.251V10.6973H101.062V20.5H99.0186L94.8418 13.7939H94.7598V20.5H92.9414ZM102.744 16.8154C102.744 16.0908 102.906 15.4368 103.229 14.8535C103.558 14.2656 104.02 13.8031 104.617 13.4658C105.219 13.124 105.9 12.9531 106.661 12.9531C107.418 12.9531 108.094 13.124 108.691 13.4658C109.293 13.8031 109.758 14.2656 110.086 14.8535C110.419 15.4414 110.585 16.0954 110.585 16.8154C110.585 17.3532 110.487 17.8613 110.291 18.3398C110.095 18.8138 109.826 19.224 109.484 19.5703C109.143 19.9121 108.728 20.1833 108.24 20.3838C107.753 20.5843 107.226 20.6846 106.661 20.6846C105.517 20.6846 104.578 20.3177 103.845 19.584C103.111 18.8503 102.744 17.9274 102.744 16.8154ZM104.59 16.8154C104.59 17.4626 104.784 17.9935 105.171 18.4082C105.563 18.8229 106.06 19.0303 106.661 19.0303C107.263 19.0303 107.759 18.8229 108.151 18.4082C108.543 17.9889 108.739 17.458 108.739 16.8154C108.739 16.1774 108.543 15.651 108.151 15.2363C107.759 14.8171 107.263 14.6074 106.661 14.6074C106.055 14.6074 105.558 14.8171 105.171 15.2363C104.784 15.651 104.59 16.1774 104.59 16.8154ZM111.686 14.5938V13.1514H112.513C112.672 13.1514 112.8 13.1012 112.896 13.001C112.991 12.9007 113.039 12.764 113.039 12.5908V11.1074H114.748V13.1377H116.778V14.5938H114.748V17.9775C114.748 18.2965 114.832 18.5449 115.001 18.7227C115.17 18.9004 115.423 18.9893 115.76 18.9893H116.737V20.5H115.377C114.607 20.5 114.005 20.2881 113.572 19.8643C113.144 19.4404 112.93 18.8366 112.93 18.0527V14.5938H111.686ZM117.865 16.8633C117.865 16.1022 118.025 15.4232 118.344 14.8262C118.663 14.2292 119.103 13.7689 119.663 13.4453C120.228 13.1172 120.866 12.9531 121.577 12.9531C122.151 12.9531 122.671 13.0557 123.136 13.2607C123.605 13.4613 123.99 13.737 124.291 14.0879C124.592 14.4388 124.822 14.8444 124.981 15.3047C125.146 15.7604 125.228 16.2503 125.228 16.7744V17.3486H119.629C119.656 17.9137 119.85 18.3695 120.21 18.7158C120.575 19.0576 121.049 19.2285 121.632 19.2285C122.069 19.2285 122.452 19.1351 122.78 18.9482C123.108 18.7568 123.336 18.5085 123.464 18.2031H125.159C124.977 18.9642 124.569 19.568 123.936 20.0146C123.302 20.4613 122.516 20.6846 121.577 20.6846C120.497 20.6846 119.608 20.3245 118.911 19.6045C118.214 18.8799 117.865 17.9661 117.865 16.8633ZM119.656 16.0635H123.491C123.45 15.5667 123.254 15.168 122.903 14.8672C122.552 14.5618 122.11 14.4092 121.577 14.4092C121.071 14.4092 120.638 14.5687 120.278 14.8877C119.918 15.2021 119.711 15.5941 119.656 16.0635ZM126.424 18.2852H128.105C128.137 18.5996 128.274 18.8411 128.516 19.0098C128.762 19.1738 129.092 19.2559 129.507 19.2559C129.917 19.2559 130.238 19.1761 130.471 19.0166C130.703 18.8525 130.819 18.6383 130.819 18.374C130.819 18.1872 130.758 18.0345 130.635 17.916C130.516 17.793 130.357 17.7064 130.156 17.6562C129.96 17.6016 129.735 17.5492 129.479 17.499C129.229 17.4443 128.971 17.3988 128.707 17.3623C128.443 17.3213 128.183 17.2507 127.928 17.1504C127.677 17.0501 127.451 16.9294 127.251 16.7881C127.055 16.6423 126.896 16.4349 126.772 16.166C126.654 15.8971 126.595 15.5781 126.595 15.209C126.595 14.5664 126.857 14.0309 127.381 13.6025C127.905 13.1696 128.609 12.9531 129.493 12.9531C130.309 12.9531 130.981 13.1536 131.51 13.5547C132.043 13.9557 132.337 14.5163 132.392 15.2363H130.778C130.737 14.9583 130.607 14.7419 130.389 14.5869C130.17 14.432 129.867 14.3545 129.479 14.3545C129.11 14.3545 128.814 14.4274 128.591 14.5732C128.368 14.7191 128.256 14.9128 128.256 15.1543C128.256 15.3047 128.304 15.4277 128.399 15.5234C128.5 15.6191 128.634 15.6943 128.803 15.749C128.971 15.7992 129.163 15.8424 129.377 15.8789C129.596 15.9108 129.824 15.945 130.061 15.9814C130.302 16.0179 130.541 16.0635 130.778 16.1182C131.015 16.1729 131.241 16.2526 131.455 16.3574C131.674 16.4622 131.868 16.5944 132.036 16.7539C132.205 16.9089 132.337 17.1162 132.433 17.376C132.533 17.6312 132.583 17.9297 132.583 18.2715C132.583 18.987 132.307 19.568 131.756 20.0146C131.204 20.4613 130.446 20.6846 129.479 20.6846C128.509 20.6846 127.766 20.4727 127.251 20.0488C126.736 19.6204 126.46 19.0326 126.424 18.2852Z" fill="#0B0C19"/>
</svg>
