<svg width="25" height="24" viewBox="0 0 25 24" fill="none" xmlns="http://www.w3.org/2000/svg">
<g clip-path="url(#clip0_511_523)">
<path d="M12.6147 0.0465606C12.5607 0.021874 12.4712 0.021874 12.4156 0.0465606L2.09972 4.80027C2.04572 4.82496 2.00098 4.89439 2.00098 4.95456C2.00098 4.95456 2.00098 5.90654 2.00098 11.6014C2.00098 19.5891 11.3757 24.0003 12.5144 24.0003C13.6531 24.0003 23.0278 19.5891 23.0278 11.6014C23.0278 5.90654 23.0278 4.95456 23.0278 4.95456C23.0278 4.89439 22.983 4.82496 22.929 4.79873L12.6147 0.0465606Z" fill="#2761FC"/>
<mask id="mask0_511_523" style="mask-type:luminance" maskUnits="userSpaceOnUse" x="2" y="0" width="22" height="25">
<path d="M12.5154 0.000366211L2.00195 4.84511C2.00195 4.84511 2.00195 5.90663 2.00195 11.6015C2.00195 19.5892 11.3767 24.0004 12.5154 24.0004C13.654 24.0004 23.0288 19.5892 23.0288 11.6015C23.0288 5.90663 23.0288 4.84511 23.0288 4.84511L12.5154 0.000366211Z" fill="white"/>
</mask>
<g mask="url(#mask0_511_523)">
<path d="M23.3256 0.000221252H12.5144V24.0002H23.3256V0.000221252Z" fill="#2152D4"/>
</g>
<path opacity="0.2" d="M16.6199 13.1039L10.7769 19.6521C10.6164 19.8326 10.3896 19.9406 10.1813 19.9344C10.1227 19.9437 10.0671 19.9437 10.0131 19.9344C9.76936 19.8557 9.65827 19.6027 9.74158 19.3219L11.4311 14.8999H8.93001C8.2681 14.8999 7.87466 14.3506 8.05209 13.6748C8.11227 13.4418 8.23724 13.215 8.41005 13.0191L14.2515 6.46942C14.4536 6.22409 14.7699 6.10683 15.0137 6.18706C15.2575 6.26575 15.3686 6.51879 15.2853 6.7996L13.5958 11.2231H16.0999C16.7618 11.2231 17.1553 11.7724 16.9778 12.4482C16.9161 12.6812 16.7927 12.908 16.6199 13.1039Z" fill="black"/>
<path d="M16.6199 11.6506L10.7769 18.0521C10.6164 18.2296 10.3896 18.333 10.1813 18.3283C10.1227 18.3376 10.0671 18.3376 10.0131 18.3283C9.76936 18.2512 9.65827 18.0043 9.74158 17.7297L11.4311 13.408H8.93001C8.2681 13.408 7.87466 12.871 8.05209 12.2091C8.11227 11.9823 8.23724 11.7601 8.41005 11.5673L14.2515 5.16574C14.4536 4.92504 14.7699 4.81087 15.0137 4.88956C15.2575 4.9667 15.3686 5.21357 15.2853 5.48821L13.5958 9.81145H16.0999C16.7618 9.81145 17.1553 10.3484 16.9778 11.0103C16.9161 11.2356 16.7927 11.4593 16.6199 11.6506Z" fill="white"/>
<mask id="mask1_511_523" style="mask-type:luminance" maskUnits="userSpaceOnUse" x="8" y="4" width="10" height="15">
<path d="M16.6211 11.6508L10.7781 18.0524C10.6176 18.2298 10.3908 18.3332 10.1825 18.3286C10.1239 18.3378 10.0684 18.3378 10.0144 18.3286C9.77058 18.2514 9.65949 18.0045 9.7428 17.7299L11.4323 13.4082H8.93123C8.26932 13.4082 7.87588 12.8713 8.05332 12.2094C8.11349 11.9826 8.23846 11.7604 8.41127 11.5675L14.2527 5.16597C14.4549 4.92527 14.7712 4.8111 15.0149 4.88979C15.2587 4.96693 15.3698 5.2138 15.2865 5.48844L13.597 9.81168H16.1011C16.7631 9.81168 17.1565 10.3486 16.9791 11.0105C16.9173 11.2358 16.7939 11.4595 16.6211 11.6508Z" fill="white"/>
</mask>
<g mask="url(#mask1_511_523)">
<path d="M16.9765 2.70181H12.5144V19.5165H16.9765V2.70181Z" fill="#DFE7F2"/>
</g>
</g>
<defs>
<clipPath id="clip0_511_523">
<rect width="24" height="24" fill="white" transform="translate(0.5)"/>
</clipPath>
</defs>
</svg>
