<svg width="24" height="24" viewBox="0 0 24 24" fill="none" xmlns="http://www.w3.org/2000/svg">
<path d="M14 7.99902V5.99902C14 5.46859 13.7893 4.95988 13.4142 4.58481C13.0391 4.20974 12.5304 3.99902 12 3.99902H5C4.46957 3.99902 3.96086 4.20974 3.58579 4.58481C3.21071 4.95988 3 5.46859 3 5.99902V17.999C3 18.5295 3.21071 19.0382 3.58579 19.4132C3.96086 19.7883 4.46957 19.999 5 19.999H12C12.5304 19.999 13.0391 19.7883 13.4142 19.4132C13.7893 19.0382 14 18.5295 14 17.999V15.999M9 11.999H21M21 11.999L18 8.99902M21 11.999L18 14.999" stroke="#62626A" stroke-width="1.5" stroke-linecap="round" stroke-linejoin="round"/>
</svg>
