<svg width="40" height="41" viewBox="0 0 40 41" fill="none" xmlns="http://www.w3.org/2000/svg">
<g id="tabler-icon-notes">
<path id="Vector" d="M15 12.1667H25M15 18.8333H25M15 25.5H21.6666M8.33331 8.83333C8.33331 7.94928 8.6845 7.10143 9.30962 6.47631C9.93474 5.85119 10.7826 5.5 11.6666 5.5H28.3333C29.2174 5.5 30.0652 5.85119 30.6903 6.47631C31.3155 7.10143 31.6666 7.94928 31.6666 8.83333V32.1667C31.6666 33.0507 31.3155 33.8986 30.6903 34.5237C30.0652 35.1488 29.2174 35.5 28.3333 35.5H11.6666C10.7826 35.5 9.93474 35.1488 9.30962 34.5237C8.6845 33.8986 8.33331 33.0507 8.33331 32.1667V8.83333Z" stroke="#0B0C19" stroke-width="2" stroke-linecap="round" stroke-linejoin="round"/>
</g>
</svg>
